<mxfile host="app.diagrams.net" agent="Mozilla/5.0 (Windows NT 10.0; Win64; x64) AppleWebKit/537.36 (KHTML, like Gecko) Chrome/128.0.0.0 YaBrowser/24.10.0.0 Safari/537.36" version="24.8.6">
  <diagram name="Страница — 1" id="b9Q7D4WRip1RvVNedgRS">
    <mxGraphModel dx="1914" dy="1032" grid="0" gridSize="10" guides="1" tooltips="1" connect="1" arrows="1" fold="1" page="1" pageScale="1" pageWidth="827" pageHeight="1169" math="0" shadow="0">
      <root>
        <mxCell id="0" />
        <mxCell id="1" parent="0" />
        <mxCell id="1KcsojEoa8aY3Qpbe3CP-3" value="Посититель" style="shape=umlActor;verticalLabelPosition=bottom;verticalAlign=top;html=1;outlineConnect=0;" parent="1" vertex="1">
          <mxGeometry x="130" y="320" width="30" height="60" as="geometry" />
        </mxCell>
        <mxCell id="1KcsojEoa8aY3Qpbe3CP-4" value="Администратор&lt;div&gt;&lt;br&gt;&lt;/div&gt;" style="shape=umlActor;verticalLabelPosition=bottom;verticalAlign=top;html=1;outlineConnect=0;" parent="1" vertex="1">
          <mxGeometry x="1000" y="330" width="30" height="60" as="geometry" />
        </mxCell>
        <mxCell id="1KcsojEoa8aY3Qpbe3CP-6" value="Регистрация" style="ellipse;whiteSpace=wrap;html=1;" parent="1" vertex="1">
          <mxGeometry x="230" y="150" width="100" height="60" as="geometry" />
        </mxCell>
        <mxCell id="1KcsojEoa8aY3Qpbe3CP-7" value="Запись на мероприятия." style="ellipse;whiteSpace=wrap;html=1;" parent="1" vertex="1">
          <mxGeometry x="360" y="200" width="90" height="50" as="geometry" />
        </mxCell>
        <mxCell id="1KcsojEoa8aY3Qpbe3CP-8" value="Просмотр истории посещений" style="ellipse;whiteSpace=wrap;html=1;" parent="1" vertex="1">
          <mxGeometry x="420" y="320" width="110" height="60" as="geometry" />
        </mxCell>
        <mxCell id="1KcsojEoa8aY3Qpbe3CP-9" value="Просмотр информации о животных и экспонатах" style="ellipse;whiteSpace=wrap;html=1;" parent="1" vertex="1">
          <mxGeometry x="414" y="510" width="105" height="70" as="geometry" />
        </mxCell>
        <mxCell id="1KcsojEoa8aY3Qpbe3CP-10" value="оставить отзыв" style="ellipse;whiteSpace=wrap;html=1;" parent="1" vertex="1">
          <mxGeometry x="399" y="255" width="90" height="50" as="geometry" />
        </mxCell>
        <mxCell id="1KcsojEoa8aY3Qpbe3CP-11" value="Управление информацией." style="ellipse;whiteSpace=wrap;html=1;" parent="1" vertex="1">
          <mxGeometry x="565" y="450" width="110" height="60" as="geometry" />
        </mxCell>
        <mxCell id="1KcsojEoa8aY3Qpbe3CP-12" value="Планирование мероприятий" style="ellipse;whiteSpace=wrap;html=1;" parent="1" vertex="1">
          <mxGeometry x="611" y="369" width="110" height="60" as="geometry" />
        </mxCell>
        <mxCell id="1KcsojEoa8aY3Qpbe3CP-13" value="Просмотр аналитики" style="ellipse;whiteSpace=wrap;html=1;" parent="1" vertex="1">
          <mxGeometry x="740" y="450" width="110" height="60" as="geometry" />
        </mxCell>
        <mxCell id="1KcsojEoa8aY3Qpbe3CP-14" value="Модерация отзывов" style="ellipse;whiteSpace=wrap;html=1;" parent="1" vertex="1">
          <mxGeometry x="790" y="560" width="110" height="60" as="geometry" />
        </mxCell>
        <mxCell id="1KcsojEoa8aY3Qpbe3CP-15" value="Управление информацией о животных и экспонатах." style="ellipse;whiteSpace=wrap;html=1;" parent="1" vertex="1">
          <mxGeometry x="810" y="210" width="150" height="80" as="geometry" />
        </mxCell>
        <mxCell id="1KcsojEoa8aY3Qpbe3CP-16" value="" style="endArrow=none;html=1;rounded=0;entryX=0;entryY=1;entryDx=0;entryDy=0;" parent="1" target="1KcsojEoa8aY3Qpbe3CP-6" edge="1">
          <mxGeometry width="50" height="50" relative="1" as="geometry">
            <mxPoint x="170" y="330" as="sourcePoint" />
            <mxPoint x="240.01999999999998" y="210.04000000000008" as="targetPoint" />
          </mxGeometry>
        </mxCell>
        <mxCell id="1KcsojEoa8aY3Qpbe3CP-18" value="" style="endArrow=none;html=1;rounded=0;" parent="1" target="1KcsojEoa8aY3Qpbe3CP-7" edge="1">
          <mxGeometry width="50" height="50" relative="1" as="geometry">
            <mxPoint x="190" y="350" as="sourcePoint" />
            <mxPoint x="260" y="230" as="targetPoint" />
          </mxGeometry>
        </mxCell>
        <mxCell id="1KcsojEoa8aY3Qpbe3CP-19" value="" style="endArrow=none;html=1;rounded=0;entryX=0;entryY=0.5;entryDx=0;entryDy=0;" parent="1" target="1KcsojEoa8aY3Qpbe3CP-8" edge="1">
          <mxGeometry width="50" height="50" relative="1" as="geometry">
            <mxPoint x="200" y="360" as="sourcePoint" />
            <mxPoint x="400" y="323" as="targetPoint" />
          </mxGeometry>
        </mxCell>
        <mxCell id="1KcsojEoa8aY3Qpbe3CP-20" value="" style="endArrow=none;html=1;rounded=0;entryX=0;entryY=0.5;entryDx=0;entryDy=0;" parent="1" target="1KcsojEoa8aY3Qpbe3CP-9" edge="1">
          <mxGeometry width="50" height="50" relative="1" as="geometry">
            <mxPoint x="220" y="390" as="sourcePoint" />
            <mxPoint x="420" y="450" as="targetPoint" />
          </mxGeometry>
        </mxCell>
        <mxCell id="1KcsojEoa8aY3Qpbe3CP-21" value="" style="endArrow=none;html=1;rounded=0;entryX=-0.026;entryY=0.606;entryDx=0;entryDy=0;entryPerimeter=0;" parent="1" target="1KcsojEoa8aY3Qpbe3CP-10" edge="1">
          <mxGeometry width="50" height="50" relative="1" as="geometry">
            <mxPoint x="220" y="350" as="sourcePoint" />
            <mxPoint x="290" y="260" as="targetPoint" />
          </mxGeometry>
        </mxCell>
        <mxCell id="1KcsojEoa8aY3Qpbe3CP-22" value="" style="endArrow=none;html=1;rounded=0;" parent="1" target="1KcsojEoa8aY3Qpbe3CP-11" edge="1">
          <mxGeometry width="50" height="50" relative="1" as="geometry">
            <mxPoint x="970" y="390" as="sourcePoint" />
            <mxPoint x="879" y="200" as="targetPoint" />
          </mxGeometry>
        </mxCell>
        <mxCell id="1KcsojEoa8aY3Qpbe3CP-23" value="" style="endArrow=none;html=1;rounded=0;" parent="1" edge="1">
          <mxGeometry width="50" height="50" relative="1" as="geometry">
            <mxPoint x="980" y="370" as="sourcePoint" />
            <mxPoint x="721" y="401" as="targetPoint" />
          </mxGeometry>
        </mxCell>
        <mxCell id="1KcsojEoa8aY3Qpbe3CP-24" value="" style="endArrow=none;html=1;rounded=0;" parent="1" target="1KcsojEoa8aY3Qpbe3CP-15" edge="1">
          <mxGeometry width="50" height="50" relative="1" as="geometry">
            <mxPoint x="990" y="340" as="sourcePoint" />
            <mxPoint x="1030" y="270" as="targetPoint" />
          </mxGeometry>
        </mxCell>
        <mxCell id="1KcsojEoa8aY3Qpbe3CP-25" value="" style="endArrow=none;html=1;rounded=0;exitX=0.981;exitY=0.44;exitDx=0;exitDy=0;exitPerimeter=0;" parent="1" source="1KcsojEoa8aY3Qpbe3CP-14" edge="1">
          <mxGeometry width="50" height="50" relative="1" as="geometry">
            <mxPoint x="900" y="580" as="sourcePoint" />
            <mxPoint x="980" y="430" as="targetPoint" />
          </mxGeometry>
        </mxCell>
        <mxCell id="1KcsojEoa8aY3Qpbe3CP-26" value="" style="endArrow=none;html=1;rounded=0;" parent="1" edge="1">
          <mxGeometry width="50" height="50" relative="1" as="geometry">
            <mxPoint x="850" y="480" as="sourcePoint" />
            <mxPoint x="970" y="420" as="targetPoint" />
          </mxGeometry>
        </mxCell>
        <mxCell id="1KcsojEoa8aY3Qpbe3CP-28" value="" style="endArrow=classic;html=1;rounded=0;entryX=0.307;entryY=0.992;entryDx=0;entryDy=0;entryPerimeter=0;dashed=1;" parent="1" target="1KcsojEoa8aY3Qpbe3CP-66" edge="1">
          <mxGeometry width="50" height="50" relative="1" as="geometry">
            <mxPoint x="290" y="150" as="sourcePoint" />
            <mxPoint x="320.0799999999999" y="102.10000000000002" as="targetPoint" />
          </mxGeometry>
        </mxCell>
        <mxCell id="1KcsojEoa8aY3Qpbe3CP-29" value="include" style="text;html=1;align=center;verticalAlign=middle;resizable=0;points=[];autosize=1;strokeColor=none;fillColor=none;rotation=-60;" parent="1" vertex="1">
          <mxGeometry x="263" y="110" width="60" height="30" as="geometry" />
        </mxCell>
        <mxCell id="1KcsojEoa8aY3Qpbe3CP-30" value="Управление профилем" style="ellipse;whiteSpace=wrap;html=1;" parent="1" vertex="1">
          <mxGeometry x="310" y="640" width="90" height="50" as="geometry" />
        </mxCell>
        <mxCell id="1KcsojEoa8aY3Qpbe3CP-31" value="" style="endArrow=none;html=1;rounded=0;entryX=0.111;entryY=0.2;entryDx=0;entryDy=0;entryPerimeter=0;" parent="1" target="1KcsojEoa8aY3Qpbe3CP-30" edge="1">
          <mxGeometry width="50" height="50" relative="1" as="geometry">
            <mxPoint x="170" y="410" as="sourcePoint" />
            <mxPoint x="260" y="280" as="targetPoint" />
          </mxGeometry>
        </mxCell>
        <mxCell id="1KcsojEoa8aY3Qpbe3CP-32" value="" style="endArrow=classic;html=1;rounded=0;dashed=1;entryX=0;entryY=0.5;entryDx=0;entryDy=0;" parent="1" source="1KcsojEoa8aY3Qpbe3CP-30" target="1KcsojEoa8aY3Qpbe3CP-40" edge="1">
          <mxGeometry width="50" height="50" relative="1" as="geometry">
            <mxPoint x="400" y="640" as="sourcePoint" />
            <mxPoint x="420" y="590" as="targetPoint" />
          </mxGeometry>
        </mxCell>
        <mxCell id="1KcsojEoa8aY3Qpbe3CP-40" value="Изменение личных данных" style="ellipse;whiteSpace=wrap;html=1;" parent="1" vertex="1">
          <mxGeometry x="425" y="610" width="100" height="60" as="geometry" />
        </mxCell>
        <mxCell id="1KcsojEoa8aY3Qpbe3CP-42" value="" style="endArrow=none;html=1;rounded=0;" parent="1" edge="1">
          <mxGeometry width="50" height="50" relative="1" as="geometry">
            <mxPoint x="210" y="370" as="sourcePoint" />
            <mxPoint x="505" y="404" as="targetPoint" />
          </mxGeometry>
        </mxCell>
        <mxCell id="1KcsojEoa8aY3Qpbe3CP-44" value="&amp;nbsp;Уведомление о записи" style="ellipse;whiteSpace=wrap;html=1;" parent="1" vertex="1">
          <mxGeometry x="460" y="120" width="100" height="50" as="geometry" />
        </mxCell>
        <mxCell id="1KcsojEoa8aY3Qpbe3CP-45" value="" style="endArrow=classic;html=1;rounded=0;exitX=0.123;exitY=0.829;exitDx=0;exitDy=0;exitPerimeter=0;dashed=1;dashPattern=8 8;" parent="1" source="1KcsojEoa8aY3Qpbe3CP-44" target="1KcsojEoa8aY3Qpbe3CP-7" edge="1">
          <mxGeometry width="50" height="50" relative="1" as="geometry">
            <mxPoint x="475" y="160" as="sourcePoint" />
            <mxPoint x="525" y="110" as="targetPoint" />
          </mxGeometry>
        </mxCell>
        <mxCell id="1KcsojEoa8aY3Qpbe3CP-46" value="extend" style="text;html=1;align=center;verticalAlign=middle;resizable=0;points=[];autosize=1;strokeColor=none;fillColor=none;rotation=-45;" parent="1" vertex="1">
          <mxGeometry x="414" y="160" width="60" height="30" as="geometry" />
        </mxCell>
        <mxCell id="1KcsojEoa8aY3Qpbe3CP-47" value="&amp;nbsp;Запрос данных из базы посещений." style="ellipse;whiteSpace=wrap;html=1;" parent="1" vertex="1">
          <mxGeometry x="540" y="230" width="110" height="60" as="geometry" />
        </mxCell>
        <mxCell id="1KcsojEoa8aY3Qpbe3CP-49" value="" style="endArrow=classic;html=1;rounded=0;entryX=0.108;entryY=0.828;entryDx=0;entryDy=0;entryPerimeter=0;dashed=1;" parent="1" source="1KcsojEoa8aY3Qpbe3CP-8" target="1KcsojEoa8aY3Qpbe3CP-47" edge="1">
          <mxGeometry width="50" height="50" relative="1" as="geometry">
            <mxPoint x="495" y="298" as="sourcePoint" />
            <mxPoint x="522" y="250" as="targetPoint" />
          </mxGeometry>
        </mxCell>
        <mxCell id="1KcsojEoa8aY3Qpbe3CP-51" value="include" style="text;html=1;align=center;verticalAlign=middle;resizable=0;points=[];autosize=1;strokeColor=none;fillColor=none;rotation=-45;" parent="1" vertex="1">
          <mxGeometry x="489" y="280" width="60" height="30" as="geometry" />
        </mxCell>
        <mxCell id="1KcsojEoa8aY3Qpbe3CP-52" value="&amp;nbsp;Поиск по экспонатам" style="ellipse;whiteSpace=wrap;html=1;" parent="1" vertex="1">
          <mxGeometry x="580" y="535" width="120" height="80" as="geometry" />
        </mxCell>
        <mxCell id="1KcsojEoa8aY3Qpbe3CP-55" value="" style="endArrow=classic;html=1;rounded=0;entryX=0.047;entryY=0.228;entryDx=0;entryDy=0;entryPerimeter=0;dashed=1;" parent="1" edge="1">
          <mxGeometry width="50" height="50" relative="1" as="geometry">
            <mxPoint x="519.36" y="541.76" as="sourcePoint" />
            <mxPoint x="579.9999999999999" y="560" as="targetPoint" />
          </mxGeometry>
        </mxCell>
        <mxCell id="1KcsojEoa8aY3Qpbe3CP-56" value="include" style="text;html=1;align=center;verticalAlign=middle;resizable=0;points=[];autosize=1;strokeColor=none;fillColor=none;rotation=15;" parent="1" vertex="1">
          <mxGeometry x="520" y="520" width="60" height="30" as="geometry" />
        </mxCell>
        <mxCell id="1KcsojEoa8aY3Qpbe3CP-57" value="Создание отчётов по мероприятиям" style="ellipse;whiteSpace=wrap;html=1;" parent="1" vertex="1">
          <mxGeometry x="690" y="240" width="120" height="80" as="geometry" />
        </mxCell>
        <mxCell id="1KcsojEoa8aY3Qpbe3CP-58" value="" style="endArrow=none;html=1;rounded=0;" parent="1" target="1KcsojEoa8aY3Qpbe3CP-57" edge="1">
          <mxGeometry width="50" height="50" relative="1" as="geometry">
            <mxPoint x="970" y="350" as="sourcePoint" />
            <mxPoint x="837" y="295" as="targetPoint" />
          </mxGeometry>
        </mxCell>
        <mxCell id="1KcsojEoa8aY3Qpbe3CP-59" value="Сбор данных с мероприятий (отзывы, посещаемость и т.д.)." style="ellipse;whiteSpace=wrap;html=1;" parent="1" vertex="1">
          <mxGeometry x="620" y="100" width="140" height="80" as="geometry" />
        </mxCell>
        <mxCell id="1KcsojEoa8aY3Qpbe3CP-60" value="" style="endArrow=classic;html=1;rounded=0;entryX=0.772;entryY=0.938;entryDx=0;entryDy=0;entryPerimeter=0;dashed=1;" parent="1" edge="1">
          <mxGeometry width="50" height="50" relative="1" as="geometry">
            <mxPoint x="721.92" y="240" as="sourcePoint" />
            <mxPoint x="699.9999999999999" y="175.03999999999996" as="targetPoint" />
          </mxGeometry>
        </mxCell>
        <mxCell id="1KcsojEoa8aY3Qpbe3CP-63" value="Уведомление пользователя" style="ellipse;whiteSpace=wrap;html=1;" parent="1" vertex="1">
          <mxGeometry x="670" y="640" width="120" height="80" as="geometry" />
        </mxCell>
        <mxCell id="1KcsojEoa8aY3Qpbe3CP-64" value="" style="endArrow=classic;html=1;rounded=0;entryX=0.273;entryY=1;entryDx=0;entryDy=0;entryPerimeter=0;dashed=1;exitX=1;exitY=0;exitDx=0;exitDy=0;" parent="1" source="1KcsojEoa8aY3Qpbe3CP-63" target="1KcsojEoa8aY3Qpbe3CP-14" edge="1">
          <mxGeometry width="50" height="50" relative="1" as="geometry">
            <mxPoint x="798" y="650" as="sourcePoint" />
            <mxPoint x="840" y="612" as="targetPoint" />
          </mxGeometry>
        </mxCell>
        <mxCell id="1KcsojEoa8aY3Qpbe3CP-65" value="extend" style="text;html=1;align=center;verticalAlign=middle;resizable=0;points=[];autosize=1;strokeColor=none;fillColor=none;rotation=-35;" parent="1" vertex="1">
          <mxGeometry x="750" y="615" width="60" height="30" as="geometry" />
        </mxCell>
        <mxCell id="1KcsojEoa8aY3Qpbe3CP-66" value="Проверка данных пользователя" style="ellipse;whiteSpace=wrap;html=1;" parent="1" vertex="1">
          <mxGeometry x="280" y="30" width="120" height="70" as="geometry" />
        </mxCell>
        <mxCell id="1KcsojEoa8aY3Qpbe3CP-67" value="include" style="text;html=1;align=center;verticalAlign=middle;resizable=0;points=[];autosize=1;strokeColor=none;fillColor=none;rotation=-15;" parent="1" vertex="1">
          <mxGeometry x="375" y="615" width="60" height="30" as="geometry" />
        </mxCell>
        <mxCell id="kc01vNHs3vFsG7zRPi9C-2" value="Редактирование информации об экспонате" style="ellipse;whiteSpace=wrap;html=1;" parent="1" vertex="1">
          <mxGeometry x="810" y="85" width="120" height="80" as="geometry" />
        </mxCell>
        <mxCell id="kc01vNHs3vFsG7zRPi9C-3" value="Добавление нового экспоната" style="ellipse;whiteSpace=wrap;html=1;" parent="1" vertex="1">
          <mxGeometry x="1020" y="170" width="90" height="60" as="geometry" />
        </mxCell>
        <mxCell id="kc01vNHs3vFsG7zRPi9C-4" value="Удаление экспоната." style="ellipse;whiteSpace=wrap;html=1;" parent="1" vertex="1">
          <mxGeometry x="950" y="80" width="120" height="80" as="geometry" />
        </mxCell>
        <mxCell id="kc01vNHs3vFsG7zRPi9C-8" value="include" style="text;html=1;align=center;verticalAlign=middle;resizable=0;points=[];autosize=1;strokeColor=none;fillColor=none;rotation=60;" parent="1" vertex="1">
          <mxGeometry x="661" y="335" width="60" height="30" as="geometry" />
        </mxCell>
        <mxCell id="kc01vNHs3vFsG7zRPi9C-9" value="" style="endArrow=classic;html=1;rounded=0;entryX=0.4;entryY=0;entryDx=0;entryDy=0;entryPerimeter=0;dashed=1;" parent="1" target="1KcsojEoa8aY3Qpbe3CP-15" edge="1">
          <mxGeometry width="50" height="50" relative="1" as="geometry">
            <mxPoint x="872" y="170" as="sourcePoint" />
            <mxPoint x="849.9999999999999" y="105.03999999999996" as="targetPoint" />
          </mxGeometry>
        </mxCell>
        <mxCell id="kc01vNHs3vFsG7zRPi9C-10" value="" style="endArrow=classic;html=1;rounded=0;entryX=0.4;entryY=0;entryDx=0;entryDy=0;entryPerimeter=0;dashed=1;" parent="1" source="kc01vNHs3vFsG7zRPi9C-4" edge="1">
          <mxGeometry width="50" height="50" relative="1" as="geometry">
            <mxPoint x="922" y="170" as="sourcePoint" />
            <mxPoint x="920" y="210" as="targetPoint" />
          </mxGeometry>
        </mxCell>
        <mxCell id="kc01vNHs3vFsG7zRPi9C-11" value="" style="endArrow=classic;html=1;rounded=0;entryX=0.4;entryY=0;entryDx=0;entryDy=0;entryPerimeter=0;dashed=1;exitX=0.03;exitY=0.745;exitDx=0;exitDy=0;exitPerimeter=0;" parent="1" source="kc01vNHs3vFsG7zRPi9C-3" edge="1">
          <mxGeometry width="50" height="50" relative="1" as="geometry">
            <mxPoint x="960" y="190" as="sourcePoint" />
            <mxPoint x="958" y="230" as="targetPoint" />
          </mxGeometry>
        </mxCell>
        <mxCell id="kc01vNHs3vFsG7zRPi9C-12" value="extend" style="text;html=1;align=center;verticalAlign=middle;resizable=0;points=[];autosize=1;strokeColor=none;fillColor=none;rotation=70;" parent="1" vertex="1">
          <mxGeometry x="855" y="170" width="60" height="30" as="geometry" />
        </mxCell>
        <mxCell id="kc01vNHs3vFsG7zRPi9C-13" value="extend" style="text;html=1;align=center;verticalAlign=middle;resizable=0;points=[];autosize=1;strokeColor=none;fillColor=none;rotation=-45;" parent="1" vertex="1">
          <mxGeometry x="900" y="160" width="60" height="30" as="geometry" />
        </mxCell>
        <mxCell id="kc01vNHs3vFsG7zRPi9C-14" value="extend" style="text;html=1;align=center;verticalAlign=middle;resizable=0;points=[];autosize=1;strokeColor=none;fillColor=none;rotation=-10;" parent="1" vertex="1">
          <mxGeometry x="960" y="190" width="60" height="30" as="geometry" />
        </mxCell>
        <mxCell id="kc01vNHs3vFsG7zRPi9C-16" value="" style="endArrow=none;html=1;rounded=0;entryX=0.5;entryY=0;entryDx=0;entryDy=0;" parent="1" target="kc01vNHs3vFsG7zRPi9C-21" edge="1">
          <mxGeometry width="50" height="50" relative="1" as="geometry">
            <mxPoint x="140" y="430" as="sourcePoint" />
            <mxPoint x="230" y="670" as="targetPoint" />
          </mxGeometry>
        </mxCell>
        <mxCell id="kc01vNHs3vFsG7zRPi9C-21" value="Просмотр будущих мероприятий" style="ellipse;whiteSpace=wrap;html=1;" parent="1" vertex="1">
          <mxGeometry x="200" y="680" width="100" height="60" as="geometry" />
        </mxCell>
        <mxCell id="kc01vNHs3vFsG7zRPi9C-22" value="Записаться на мероприяте" style="ellipse;whiteSpace=wrap;html=1;" parent="1" vertex="1">
          <mxGeometry x="369" y="710" width="90" height="50" as="geometry" />
        </mxCell>
        <mxCell id="kc01vNHs3vFsG7zRPi9C-23" value="" style="endArrow=classic;html=1;rounded=0;dashed=1;entryX=1.01;entryY=0.645;entryDx=0;entryDy=0;entryPerimeter=0;" parent="1" target="kc01vNHs3vFsG7zRPi9C-21" edge="1">
          <mxGeometry width="50" height="50" relative="1" as="geometry">
            <mxPoint x="369" y="732" as="sourcePoint" />
            <mxPoint x="414" y="680" as="targetPoint" />
          </mxGeometry>
        </mxCell>
        <mxCell id="kc01vNHs3vFsG7zRPi9C-24" value="extend" style="text;html=1;align=center;verticalAlign=middle;resizable=0;points=[];autosize=1;strokeColor=none;fillColor=none;rotation=15;" parent="1" vertex="1">
          <mxGeometry x="309" y="695" width="60" height="30" as="geometry" />
        </mxCell>
        <mxCell id="Bca4E0FWg_l15pvbGtW4-2" value="просмотр афиши мероприятий" style="ellipse;whiteSpace=wrap;html=1;" parent="1" vertex="1">
          <mxGeometry x="499" y="380" width="88" height="60" as="geometry" />
        </mxCell>
        <mxCell id="Bca4E0FWg_l15pvbGtW4-3" value="создание афиши мероприятий" style="ellipse;whiteSpace=wrap;html=1;" parent="1" vertex="1">
          <mxGeometry x="583" y="293" width="95" height="59" as="geometry" />
        </mxCell>
        <mxCell id="Bca4E0FWg_l15pvbGtW4-4" value="" style="endArrow=classic;html=1;rounded=0;entryX=0.772;entryY=0.938;entryDx=0;entryDy=0;entryPerimeter=0;dashed=1;" parent="1" edge="1">
          <mxGeometry width="50" height="50" relative="1" as="geometry">
            <mxPoint x="686" y="369" as="sourcePoint" />
            <mxPoint x="669.9999999999999" y="337.52" as="targetPoint" />
          </mxGeometry>
        </mxCell>
        <mxCell id="Bca4E0FWg_l15pvbGtW4-5" value="include" style="text;html=1;align=center;verticalAlign=middle;resizable=0;points=[];autosize=1;strokeColor=none;fillColor=none;rotation=75;" parent="1" vertex="1">
          <mxGeometry x="696" y="195" width="60" height="30" as="geometry" />
        </mxCell>
      </root>
    </mxGraphModel>
  </diagram>
</mxfile>
